<svg width="150" height="150" viewBox="0 0 150 150" fill="none" xmlns="http://www.w3.org/2000/svg">
<path d="M15.625 40.625C15.625 28.8399 15.625 22.9473 19.2862 19.2862C22.9473 15.625 28.8399 15.625 40.625 15.625C52.4101 15.625 58.3027 15.625 61.9638 19.2862C65.625 22.9473 65.625 28.8399 65.625 40.625C65.625 52.4101 65.625 58.3027 61.9638 61.9638C58.3027 65.625 52.4101 65.625 40.625 65.625C28.8399 65.625 22.9473 65.625 19.2862 61.9638C15.625 58.3027 15.625 52.4101 15.625 40.625Z" stroke="#272727" stroke-width="1.5"/>
<path d="M84.375 109.375C84.375 97.5899 84.375 91.6973 88.0362 88.0362C91.6973 84.375 97.5899 84.375 109.375 84.375C121.16 84.375 127.053 84.375 130.714 88.0362C134.375 91.6973 134.375 97.5899 134.375 109.375C134.375 121.16 134.375 127.053 130.714 130.714C127.053 134.375 121.16 134.375 109.375 134.375C97.5899 134.375 91.6973 134.375 88.0362 130.714C84.375 127.053 84.375 121.16 84.375 109.375Z" stroke="#272727" stroke-width="1.5"/>
<path d="M15.625 109.375C15.625 97.5899 15.625 91.6973 19.2862 88.0362C22.9473 84.375 28.8399 84.375 40.625 84.375C52.4101 84.375 58.3027 84.375 61.9638 88.0362C65.625 91.6973 65.625 97.5899 65.625 109.375C65.625 121.16 65.625 127.053 61.9638 130.714C58.3027 134.375 52.4101 134.375 40.625 134.375C28.8399 134.375 22.9473 134.375 19.2862 130.714C15.625 127.053 15.625 121.16 15.625 109.375Z" stroke="#272727" stroke-width="1.5"/>
<path d="M84.375 40.625C84.375 28.8399 84.375 22.9473 88.0362 19.2862C91.6973 15.625 97.5899 15.625 109.375 15.625C121.16 15.625 127.053 15.625 130.714 19.2862C134.375 22.9473 134.375 28.8399 134.375 40.625C134.375 52.4101 134.375 58.3027 130.714 61.9638C127.053 65.625 121.16 65.625 109.375 65.625C97.5899 65.625 91.6973 65.625 88.0362 61.9638C84.375 58.3027 84.375 52.4101 84.375 40.625Z" stroke="#272727" stroke-width="1.5"/>
</svg>
